<svg width="35" height="35" viewBox="0 0 35 35" fill="none" xmlns="http://www.w3.org/2000/svg">
<path d="M3.43594 17.5004L5.07344 19.2026C11.8234 26.219 22.8047 26.219 29.5547 19.2026L31.1859 17.5004L29.5484 15.7983C22.7984 8.78185 11.8172 8.78185 5.06719 15.7983L3.43594 17.5004ZM17.3109 25.6993C12.5734 25.6993 7.83594 23.8217 4.22969 20.0731L2.17344 17.9357C1.94219 17.6953 1.94219 17.3055 2.17344 17.0587L4.22969 14.9212C11.4422 7.42404 23.1797 7.42404 30.3922 14.9212L32.4484 17.0587C32.6797 17.299 32.6797 17.6888 32.4484 17.9357L30.3922 20.0731C26.7859 23.8217 22.0484 25.6993 17.3109 25.6993Z" fill="#1A1A18" stroke="#1A1A18" stroke-width="0.3"/>
<path d="M17.311 12.7905C14.811 12.7905 12.7798 14.902 12.7798 17.5006C12.7798 20.0993 14.811 22.2108 17.311 22.2108C19.811 22.2108 21.8423 20.0993 21.8423 17.5006C21.8423 14.902 19.811 12.7905 17.311 12.7905ZM17.311 23.4451C14.1548 23.4451 11.5923 20.775 11.5923 17.5006C11.5923 14.2198 14.161 11.5562 17.311 11.5562C20.461 11.5562 23.0298 14.2263 23.0298 17.5006C23.0298 20.7815 20.4673 23.4451 17.311 23.4451Z" fill="#1A1A18" stroke="#1A1A18" stroke-width="0.3"/>
</svg>
