<svg width="27" height="27" viewBox="0 0 27 27" fill="none" xmlns="http://www.w3.org/2000/svg">
<g clip-path="url(#clip0_382_2931)">
<path d="M12.3428 24.0685C12.6538 24.3917 13.0718 24.5719 13.5102 24.5719C13.9435 24.5719 14.3717 24.3864 14.6776 24.0685L23.8385 14.546C25.2302 13.0993 25.9949 11.1757 26 9.13559C26 7.09013 25.2353 5.16655 23.8436 3.7199C22.4519 2.27324 20.6064 1.47837 18.6387 1.47837C16.7066 1.47837 14.8866 2.24674 13.5051 3.64571C12.1185 2.24144 10.2934 1.46777 8.35624 1.46777C6.39356 1.46777 4.54812 2.26264 3.1564 3.704C1.76468 5.15066 1 7.07423 1 9.11969C1 11.1598 1.76978 13.0834 3.1615 14.5301L12.3428 24.0685ZM4.04343 4.62604C5.19555 3.42844 6.73002 2.76606 8.36134 2.76606C9.99266 2.76606 11.5322 3.42844 12.6894 4.63134L13.0667 5.02348C13.1839 5.14536 13.342 5.21425 13.5102 5.21425C13.6733 5.21425 13.8365 5.14536 13.9537 5.02348L14.3208 4.64194C15.478 3.43904 17.0124 2.77665 18.6489 2.77665C20.2802 2.77665 21.8146 3.43904 22.9668 4.63664C24.124 5.83954 24.7561 7.43457 24.7561 9.13029C24.7561 10.826 24.1189 12.421 22.9617 13.6239L13.7957 23.1517C13.6478 23.3054 13.3777 23.3054 13.2247 23.1517L4.04853 13.6133C2.89131 12.4104 2.25408 10.8154 2.25408 9.11969C2.25408 7.42397 2.89131 5.82894 4.04343 4.62604Z" fill="#1A1A18" stroke="#1A1A18" stroke-width="0.3"/>
</g>
<defs>
<clipPath id="clip0_382_2931">
<path d="M0.315918 0.0263672H26.3028V18.0132C26.3028 22.4315 22.721 26.0132 18.3028 26.0132H8.31593C3.89765 26.0132 0.315918 22.4315 0.315918 18.0132V0.0263672Z" fill="white"/>
</clipPath>
</defs>
</svg>
