<svg width="62" height="60" viewBox="0 0 62 60" fill="none" xmlns="http://www.w3.org/2000/svg">
<path d="M59.9271 35.9003C58.4817 38.7861 55.843 38.6115 55.0629 38.4897C54.3749 39.1787 53.0946 40.5458 52.3549 41.8629C52.2856 42.0944 52.2226 42.2784 52.1697 42.3881C51.8962 42.9444 51.0582 44.5214 49.8245 45.3173C48.9866 45.8574 48.1435 47.0743 47.3408 48.103C48.3212 47.502 49.7099 46.6641 50.5264 46.2337C54.5879 41.312 58.7866 44.9559 58.7866 44.9559C58.7866 44.9559 57.4585 44.9288 56.0332 46.2147C53.6453 48.3697 51.159 47.1392 50.4496 46.7101C49.604 47.0634 48.0515 47.7741 46.901 48.6472C46.673 48.9165 46.4512 49.1575 46.2332 49.347C45.123 50.3148 41.9752 52.1855 40.8902 52.754C40.3256 53.0504 39.9514 53.4213 39.6653 53.7556C40.7049 53.3807 42.8888 52.6091 44.0418 52.2843C49.202 48.1071 52.8325 52.823 52.8325 52.823C52.8325 52.823 51.4652 52.4941 49.7401 53.5039C46.8506 55.1932 44.5194 53.3618 43.8717 52.758C42.7879 52.9597 40.6508 53.4375 39.2482 54.266C39.1714 54.3553 39.0995 54.4324 39.0277 54.4907C38.7933 54.6788 35.4187 55.5248 31.8185 56.804C36.0185 58.2374 37.7902 59.2716 37.7902 59.2716C37.9339 60.0865 36.9926 59.9971 36.9926 59.9971C35.4439 58.9102 33.2197 57.9274 30.9981 57.1018C28.7752 57.9274 26.5511 58.9102 25.0024 59.9971C25.0024 59.9971 24.0611 60.0865 24.2047 59.2716C24.2047 59.2716 25.9765 58.2374 30.1765 56.804C26.5775 55.5248 23.2016 54.6788 22.9685 54.4907C22.8954 54.4324 22.8236 54.3553 22.7467 54.266C21.3442 53.4375 19.2057 52.9597 18.1233 52.758C17.4743 53.3618 15.1431 55.1932 12.2536 53.5039C10.5284 52.4927 9.1612 52.823 9.1612 52.823C9.1612 52.823 12.7917 48.1071 17.9519 52.2843C19.1037 52.6078 21.2888 53.3807 22.3284 53.7556C22.0436 53.4213 21.6693 53.0504 21.1048 52.754C20.0198 52.1841 16.872 50.3148 15.7618 49.347C15.5438 49.1575 15.3207 48.9165 15.0939 48.6485C13.9422 47.7741 12.3897 47.0634 11.5441 46.7101C10.8359 47.1392 8.34841 48.3697 5.96045 46.2147C4.53523 44.9288 3.20705 44.9559 3.20705 44.9559C3.20705 44.9559 7.40582 41.312 11.4672 46.2337C12.2838 46.6641 13.6737 47.502 14.6541 48.1044C13.8514 47.0743 13.0084 45.8574 12.1704 45.3173C10.9367 44.5214 10.0975 42.9444 9.82403 42.3881C9.7711 42.2784 9.70936 42.0944 9.63879 41.8629C8.89909 40.5445 7.62005 39.1773 6.93201 38.4897C6.15199 38.6115 3.51452 38.7848 2.06788 35.9003C1.20469 34.1771 0 33.6952 0 33.6952C0 33.6952 4.97124 31.964 7.02023 38.0281C7.66416 38.7943 8.75669 40.2521 9.44221 41.178C9.17506 40.2156 8.83608 38.9635 8.46686 38.265C7.8872 37.1659 7.18404 35.0042 7.08449 34.3017C7.07567 34.2353 7.06559 34.1487 7.05551 34.0526C6.73921 32.63 5.80797 30.919 5.31274 30.073C4.5932 29.985 2.21154 29.4761 1.55627 26.5496C1.16563 24.8007 0.199104 24.0698 0.199104 24.0698C0.199104 24.0698 4.98762 23.7855 5.49042 29.6791C5.90248 30.5346 6.57162 32.1454 6.97738 33.1403C6.89673 32.1278 6.79844 30.762 6.66738 29.8077C6.46954 28.3756 5.97683 26.6917 6.07512 25.8159C6.09024 25.6792 6.10915 25.4978 6.12931 25.288C6.08898 23.8627 5.60761 22.1098 5.33038 21.211C4.65495 20.9429 2.45223 19.833 2.46987 16.8199C2.48121 15.0209 1.70749 14.0626 1.70749 14.0626C1.70749 14.0626 6.41536 15.0209 5.58871 20.8699C5.78151 21.7335 6.04236 23.2793 6.21626 24.3567C6.31959 23.2265 6.44938 21.8025 6.56909 20.8861C6.75433 19.4662 6.69259 19.0574 7.04291 17.7606C7.50538 16.4436 7.57468 14.4578 7.5772 13.4765C7.04291 13.0149 5.37448 11.3053 6.2339 8.60215C6.74803 6.98595 6.31959 5.87328 6.31959 5.87328C6.31959 5.87328 10.2966 8.25969 7.9061 13.2613C7.82671 14.2155 7.58098 15.9901 7.43859 16.9877C7.88342 16.0212 8.4215 14.6297 8.79198 13.8677L8.77433 13.8893C8.78567 13.8704 8.79954 13.846 8.81214 13.8257C8.89783 13.6497 8.97469 13.5117 9.0377 13.4237C9.044 13.4156 9.04904 13.4074 9.05535 13.3993C9.67407 12.2731 10.6217 10.2982 11.2518 8.7524C11.5088 8.12162 11.6915 7.54904 11.8062 7.15515C11.4509 6.59069 10.3923 4.56976 11.8541 2.40671C12.7274 1.11943 12.6316 0 12.6316 0C12.6316 0 15.5677 3.3082 12.1465 7.06175C11.6172 8.40452 9.73708 12.4491 9.51403 12.931C10.0748 12.2934 11.0716 11.1699 11.6386 10.6055C13.5339 6.23334 17.2097 7.7778 17.2097 7.7778C17.2097 7.7778 16.2684 8.07018 15.5161 9.30061C14.2572 11.3594 12.2561 11.0874 11.6739 10.9561C11.0489 11.4853 9.82151 12.5966 9.23554 13.6308L9.22924 13.62C8.88271 14.4727 8.30304 15.4473 7.925 16.3258C7.25083 17.8892 6.84758 19.2875 6.86019 20.1755C6.86145 20.2323 6.86145 20.2865 6.86145 20.3406C7.22437 19.5447 7.98549 17.8973 8.42654 17.0716C9.07929 11.951 13.2995 12.2826 13.2995 12.2826C13.2995 12.2826 12.4237 12.9012 12.0141 14.4186C11.3312 16.9539 9.20278 17.3559 8.56767 17.4182C8.08378 18.1721 7.1538 19.7261 6.85767 20.9849L6.83877 20.9673C6.76694 22.0556 6.54137 23.1845 6.40528 25.5438C6.29565 27.447 6.56406 27.8707 6.76064 28.2308C6.88035 27.271 7.11726 25.4504 7.2962 24.5029C6.35487 19.1508 10.6746 17.9677 10.6746 17.9677C10.6746 17.9677 9.99036 18.9004 10.0534 20.5612C10.1592 23.3402 8.15939 24.5029 7.54318 24.7953C7.30754 25.6697 6.89799 27.3956 6.93201 28.7343C6.93957 28.8047 6.94461 28.8832 6.94209 28.9739C6.92319 30.0527 7.20672 32.3836 7.32518 34.0039C7.4033 35.0678 7.93382 36.1074 8.28918 36.6975C8.19719 35.8015 7.99683 33.7927 7.95651 32.7626C5.84578 27.8111 9.77488 25.5479 9.77488 25.5479C9.77488 25.5479 9.32123 26.6321 9.7522 28.2253C10.4768 30.8946 8.79702 32.5406 8.26272 32.9819C8.22743 33.9457 8.21735 35.8935 8.6143 37.1943C9.0188 39.6714 10.0521 41.2673 10.0723 41.9495C10.0899 42.5356 10.8977 43.8567 11.8024 44.6581C11.4912 43.7918 10.7288 41.645 10.4087 40.5364C6.90303 35.9503 10.4604 32.3958 10.4604 32.3958C10.4604 32.3958 10.26 33.6709 11.127 35.2208C12.5799 37.8156 11.2366 40.0491 10.7893 40.6744C11.001 41.7005 11.4912 43.7525 12.246 45.0019C13.3121 45.7004 15.7769 48.8042 15.7769 48.8042C16.5141 49.5419 17.5512 50.1172 18.2254 50.4434C17.5638 49.6705 16.2381 48.1084 15.5955 47.2489C10.6393 44.3143 12.8458 39.5103 12.8458 39.5103C12.8458 39.5103 13.0928 40.8017 14.4613 41.9211C16.7548 43.7972 16.2268 46.4557 16.01 47.2286C16.5658 48.1152 17.7452 49.864 18.9008 50.7479C19.3771 51.4721 22.07 53.2332 22.07 53.2332C22.07 53.2332 22.6598 53.9492 25.4296 54.8602C24.5374 54.1631 23.1475 53.0612 22.4141 52.4061C16.7182 50.4867 18.0641 45.0208 18.0641 45.0208C18.0641 45.0208 18.5694 46.3014 20.2038 47.1487C22.9408 48.5727 22.9131 51.441 22.8412 52.2897C23.523 53.0112 24.8814 54.3594 26.1529 55.0862C26.3646 55.1499 26.5864 55.2135 26.8195 55.2785C28.401 55.717 29.7884 56.1393 31.0006 56.5373C32.2129 56.1393 33.599 55.7157 35.1805 55.2785C35.4149 55.2135 35.6367 55.1499 35.8484 55.0862C37.1199 54.3594 38.4783 53.0112 39.16 52.2897C39.0869 51.441 39.0592 48.5727 41.7975 47.1487C43.4306 46.3 43.9359 45.0208 43.9359 45.0208C43.9359 45.0208 45.2818 50.4853 39.5859 52.4061C38.8525 53.0612 37.4639 54.1631 36.5717 54.8602C39.3402 53.9492 39.9312 53.2332 39.9312 53.2332C39.9312 53.2332 42.6241 51.4721 43.1005 50.7479C44.256 49.864 45.4355 48.1152 45.9925 47.2286C45.7757 46.4557 45.2477 43.7985 47.5399 41.9211C48.9084 40.803 49.1554 39.5103 49.1554 39.5103C49.1554 39.5103 51.3632 44.3156 46.4071 47.2489C45.7644 48.1084 44.44 49.6705 43.7772 50.4434C44.4513 50.1172 45.4884 49.5419 46.2256 48.8042C46.2256 48.8042 48.6917 45.7004 49.7565 45.0019C50.5101 43.7525 51.0015 41.6991 51.2132 40.6744C50.7659 40.0491 49.4226 37.817 50.8755 35.2208C51.7412 33.6709 51.5409 32.3958 51.5409 32.3958C51.5409 32.3958 55.0982 35.9503 51.5925 40.5364C51.2724 41.645 50.5088 43.7931 50.1976 44.6581C51.1036 43.8567 51.9101 42.5356 51.929 41.9495C51.9491 41.2673 52.9825 39.6714 53.387 37.1943C53.7839 35.8935 53.7738 33.9457 53.7385 32.9819C53.2042 32.5393 51.5257 30.8946 52.2503 28.2253C52.6813 26.6321 52.2276 25.5479 52.2276 25.5479C52.2276 25.5479 56.1555 27.8111 54.046 32.7626C54.0044 33.7927 53.8053 35.8001 53.7133 36.6975C54.07 36.106 54.6005 35.0678 54.6773 34.0052C54.7945 32.385 55.0793 30.0541 55.0604 28.9752C55.0592 28.8845 55.0629 28.806 55.0705 28.7356C55.1045 27.3969 54.6962 25.6711 54.4593 24.7967C53.8431 24.5056 51.8446 23.3415 51.9491 20.5626C52.0121 18.9017 51.3292 17.9691 51.3292 17.9691C51.3292 17.9691 55.6489 19.1521 54.7076 24.5043C54.8853 25.4518 55.1222 27.2724 55.2431 28.2321C55.4385 27.8707 55.7069 27.4497 55.5972 25.5452C55.4611 23.1845 55.2356 22.0556 55.1625 20.9687L55.1448 20.9863C54.8487 19.7288 53.92 18.1748 53.4348 17.4195C52.7985 17.3573 50.6714 16.9566 49.9884 14.4199C49.5801 12.9025 48.7018 12.2839 48.7018 12.2839C48.7018 12.2839 52.9207 11.9523 53.5735 17.073C54.0158 17.8973 54.7756 19.546 55.1398 20.3419C55.1385 20.2878 55.1385 20.2323 55.1398 20.1768C55.1524 19.2902 54.7492 17.8919 54.075 16.3272C53.6957 15.4487 53.1173 14.4754 52.7707 13.6213L52.7645 13.6321C52.1785 12.598 50.9511 11.4867 50.3248 10.9574C41.8454 12.8755 46.0895 0.755309 50.3601 10.6068C50.9272 11.1713 51.9252 12.2961 52.486 12.9337C52.2617 12.4531 50.3828 8.40723 49.8535 7.06581C46.4323 3.31226 49.3696 0.00270572 49.3696 0.00270572C49.3696 0.00270572 49.2739 1.12214 50.1459 2.40941C51.6089 4.57247 50.5491 6.59476 50.1938 7.15786C50.3072 7.5504 50.4924 8.12433 50.7482 8.75511C51.3783 10.3009 52.3272 12.2758 52.9446 13.402C52.9509 13.4101 52.956 13.4183 52.961 13.4264C53.024 13.513 53.1009 13.6524 53.1866 13.8284C53.1992 13.8487 53.2131 13.8731 53.2244 13.892L53.208 13.8704C53.5772 14.6325 54.1178 16.024 54.5614 16.9918C54.419 15.9942 54.1733 14.2196 54.0939 13.264C51.7034 8.26239 55.6804 5.87464 55.6804 5.87464C55.6804 5.87464 55.2507 6.9873 55.7661 8.6035C56.6255 11.3066 54.9571 13.0163 54.4215 13.4778C54.4253 14.4592 54.4934 16.4449 54.9558 17.762C55.3061 19.0587 55.2457 19.4689 55.4309 20.8875C55.5506 21.8038 55.6804 23.2265 55.7837 24.3567C55.9576 23.2806 56.2185 21.7348 56.4113 20.8712C55.5834 15.0223 60.2925 14.0639 60.2925 14.0639C60.2925 14.0639 59.52 15.0223 59.5301 16.8212C59.549 19.8343 57.3463 20.9429 56.6709 21.2123C56.3936 22.1098 55.9123 23.8627 55.872 25.2894C55.8934 25.5005 55.911 25.6819 55.9261 25.8186C56.0257 26.6944 55.5317 28.3783 55.3339 29.8104C55.2028 30.7647 55.1045 32.1305 55.0239 33.143C55.4309 32.1481 56.1 30.5346 56.5108 29.6805C57.0136 23.7882 61.8022 24.0725 61.8022 24.0725C61.8022 24.0725 60.8369 24.8034 60.445 26.5523C59.7897 29.4788 57.4068 29.9877 56.6885 30.0757C56.192 30.9204 55.262 32.6327 54.9445 34.0553C54.9344 34.1514 54.9243 34.2367 54.9155 34.303C54.816 35.0055 54.1141 37.1672 53.5331 38.2664C53.1639 38.9662 52.8262 40.2183 52.5578 41.1807C53.2433 40.2535 54.3346 38.7956 54.9798 38.0295C57.03 31.9653 62 33.6966 62 33.6966C62 33.6966 60.7903 34.1771 59.9271 35.9003Z" fill="#D8A82E"/>
<path d="M42.412 15.8447V16.8599C42.1978 16.9654 42.0264 17.0751 41.9017 17.1915C41.7769 17.312 41.6812 17.4703 41.6119 17.6815C41.5438 17.8872 41.4984 18.1498 41.477 18.4706C41.4556 18.7969 41.4468 19.207 41.4468 19.6957V35.0523H43.1832C43.531 35.0523 43.807 34.9629 44.0175 34.7789C44.2254 34.5894 44.4056 34.3051 44.5581 33.9207C44.7105 33.5362 44.8428 33.0314 44.9525 32.4101C45.0621 31.7887 45.1516 31.204 45.2158 30.6571H46.4445L46.2454 36.8878H37.713V35.8712C37.936 35.7656 38.1099 35.656 38.2385 35.5301C38.367 35.4096 38.4615 35.2404 38.5233 35.0306C38.5875 34.8195 38.6266 34.5515 38.6455 34.2307C38.6631 33.9044 38.6732 33.4943 38.6732 33.0043V19.7268C38.6732 19.2422 38.6644 18.8375 38.6493 18.5113C38.6367 18.1796 38.5976 17.917 38.5333 17.7059C38.4716 17.5001 38.3771 17.3377 38.2485 17.2064C38.12 17.0805 37.9436 16.9641 37.7142 16.8585V15.8433H42.412V15.8447ZM36.0937 16.3225V20.7907H34.8764C34.7328 19.6334 34.5072 18.7752 34.1947 18.227C33.886 17.6747 33.4789 17.4013 32.9786 17.4013C32.0348 17.4013 31.3228 18.1796 30.8389 19.7376C30.3525 21.2956 30.1118 23.6049 30.1118 26.6681C30.1118 29.5147 30.3349 31.6669 30.7747 33.1356C31.2182 34.5988 31.8659 35.3298 32.7178 35.3298C33.1551 35.3298 33.5092 35.2039 33.7839 34.9508C34.0561 34.699 34.2766 34.3254 34.4404 33.8192C34.6055 33.3143 34.7466 32.609 34.8651 31.694H36.0912V36.3612C35.4372 36.6306 34.8348 36.8242 34.2942 36.95C33.7499 37.0705 33.1841 37.1341 32.6006 37.1341C31.3594 37.1341 30.345 36.7497 29.5599 35.9768C28.7748 35.2079 28.1964 34.0398 27.8234 32.4872C27.4504 30.9292 27.2639 28.9557 27.2639 26.572C27.2639 24.3412 27.4845 22.4042 27.9217 20.7515C28.3615 19.1055 29.0067 17.8304 29.8585 16.9357C30.7142 16.0423 31.7349 15.5942 32.9207 15.5942C33.5256 15.5942 34.0699 15.6524 34.5589 15.7621C35.0541 15.8812 35.5645 16.0653 36.0937 16.3225ZM19.218 17.6815V26.2484H20.1038C20.5802 26.2484 20.9746 26.1388 21.2871 25.9222C21.5958 25.7002 21.8428 25.3903 22.023 24.995C22.2057 24.5998 22.3318 24.1328 22.3985 23.6008C22.4678 23.0634 22.5019 22.48 22.5019 21.8438C22.5019 20.4442 22.3128 19.3965 21.9298 18.6967C21.5479 17.9969 20.9796 17.649 20.2273 17.649C19.7157 17.649 19.3793 17.6598 19.218 17.6815ZM20.1832 36.8891H15.4829V35.8726C15.706 35.767 15.8811 35.6573 16.0084 35.5409C16.1369 35.4205 16.2314 35.2567 16.2932 35.0469C16.3574 34.8357 16.3965 34.5677 16.4154 34.2469C16.4343 33.9207 16.4431 33.5105 16.4431 33.0219V19.7295C16.4431 19.2449 16.4343 18.8402 16.4192 18.514C16.4066 18.1823 16.3675 17.9197 16.3033 17.7086C16.2415 17.5028 16.147 17.3404 16.0185 17.2091C15.8899 17.0832 15.7123 16.9668 15.4842 16.8612V15.846H20.7037C21.4093 15.846 22.0079 15.9299 22.5006 16.0991C22.9933 16.2724 23.423 16.5309 23.7935 16.8775C24.106 17.1671 24.3681 17.5299 24.5824 17.9657C24.7966 18.403 24.9617 18.9133 25.0776 19.4926C25.1973 20.0706 25.254 20.7501 25.254 21.519C25.254 22.5233 25.1507 23.3923 24.9453 24.1071C24.7374 24.8285 24.4589 25.4282 24.1111 25.9073C23.7633 26.3811 23.2958 26.8332 22.7111 27.2542V27.4058C23.1508 27.7374 23.5175 28.1746 23.8049 28.7269C24.0947 29.2751 24.3581 29.9736 24.5899 30.8169L25.1519 32.9109C25.4027 33.8476 25.6535 34.5474 25.9005 35.0157C26.1487 35.4841 26.4411 35.7683 26.7838 35.8739V36.8905H23.3373C22.9883 36.0688 22.5976 34.8438 22.1642 33.2222L21.4648 30.5854C21.2569 29.8017 21.0767 29.2494 20.9305 28.9178C20.7805 28.5915 20.6255 28.3655 20.4693 28.2396C20.3105 28.1178 20.066 28.0555 19.7384 28.0555H19.2192V33.0232C19.2192 33.7907 19.2406 34.3335 19.2797 34.6381C19.3225 34.9481 19.4045 35.1958 19.5242 35.3799C19.6439 35.5639 19.8631 35.7277 20.1845 35.8739V36.8891H20.1832Z" fill="#D8A82E"/>
</svg>
