<svg width="26" height="30" viewBox="0 0 26 30" fill="none" xmlns="http://www.w3.org/2000/svg">
<g clip-path="url(#clip0_382_2922)">
<path d="M9.35747 19.1495H9.35861C9.35956 19.1495 9.36052 19.1493 9.36147 19.1493H22.6406C22.9675 19.1493 23.255 18.9051 23.3448 18.5511L26.2745 7.00321C26.3376 6.75425 26.2934 6.4866 26.1551 6.27996C26.0166 6.07332 25.8001 5.95174 25.5703 5.95174H7.66832L7.14475 3.29826C7.07017 2.92085 6.77301 2.65234 6.42969 2.65234H2.03516C1.63061 2.65234 1.30273 3.02159 1.30273 3.47719C1.30273 3.93279 1.63061 4.30204 2.03516 4.30204H5.84222C5.93492 4.77225 8.34772 17.0002 8.48657 17.7037C7.70818 18.0847 7.16211 18.9588 7.16211 19.9742C7.16211 21.3386 8.14783 22.4487 9.35937 22.4487H22.6406C23.0452 22.4487 23.373 22.0795 23.373 21.6239C23.373 21.1683 23.0452 20.799 22.6406 20.799H9.35937C8.95559 20.799 8.62695 20.4289 8.62695 19.9742C8.62695 19.5201 8.95444 19.1506 9.35747 19.1495ZM24.5993 7.60144L22.0881 17.4996H9.94684L7.99371 7.60144H24.5993Z" fill="#1A1A18"/>
<path d="M8.62695 24.9228C8.62695 26.2872 9.61267 27.3973 10.8242 27.3973C12.0358 27.3973 13.0215 26.2872 13.0215 24.9228C13.0215 23.5584 12.0358 22.4482 10.8242 22.4482C9.61267 22.4482 8.62695 23.5584 8.62695 24.9228ZM10.8242 24.0979C11.228 24.0979 11.5566 24.468 11.5566 24.9228C11.5566 25.3775 11.228 25.7476 10.8242 25.7476C10.4204 25.7476 10.0918 25.3775 10.0918 24.9228C10.0918 24.468 10.4204 24.0979 10.8242 24.0979Z" fill="#1A1A18"/>
<path d="M18.9785 24.9228C18.9785 26.2872 19.9642 27.3973 21.1758 27.3973C22.3873 27.3973 23.373 26.2872 23.373 24.9228C23.373 23.5584 22.3873 22.4482 21.1758 22.4482C19.9642 22.4482 18.9785 23.5584 18.9785 24.9228ZM21.1758 24.0979C21.5796 24.0979 21.9082 24.468 21.9082 24.9228C21.9082 25.3775 21.5796 25.7476 21.1758 25.7476C20.772 25.7476 20.4434 25.3775 20.4434 24.9228C20.4434 24.468 20.772 24.0979 21.1758 24.0979Z" fill="#1A1A18"/>
</g>
<defs>
<clipPath id="clip0_382_2922">
<path d="M0 0.947266H25.9868V21.1021C25.9868 25.5204 22.4051 29.1021 17.9868 29.1021H8.00001C3.58173 29.1021 0 25.5204 0 21.1021V0.947266Z" fill="white"/>
</clipPath>
</defs>
</svg>
